<svg width="24" height="25" viewBox="0 0 24 25" fill="none" xmlns="http://www.w3.org/2000/svg">
<path d="M19.4241 15.6587C19.1449 15.3795 18.7893 15.1891 18.4021 15.1117L16.0146 14.6342C14.7062 14.3725 13.348 14.5544 12.1546 15.1511L11.8372 15.3098C10.6438 15.9065 9.28557 16.0884 7.97722 15.8267L6.04548 15.4404C5.38976 15.3092 4.71188 15.5145 4.23903 15.9873M7.99589 4.23047H15.9959L14.9959 5.23047V10.402C14.9959 10.9325 15.2066 11.4412 15.5817 11.8163L20.5817 16.8163C21.8416 18.0762 20.9493 20.2305 19.1675 20.2305H4.82432C3.04251 20.2305 2.15018 18.0762 3.41011 16.8163L8.41011 11.8163C8.78518 11.4412 8.99589 10.9325 8.99589 10.402V5.23047L7.99589 4.23047Z" stroke="#8F9295" stroke-width="1.5" stroke-linecap="round" stroke-linejoin="round"/>
</svg>
