<svg width="18" height="18" viewBox="0 0 18 18" fill="none" xmlns="http://www.w3.org/2000/svg">
<path d="M1 2.22998C1 1.6777 1.44772 1.22998 2 1.22998H16C16.5523 1.22998 17 1.6777 17 2.22998V4.22998C17 4.78227 16.5523 5.22998 16 5.22998H2C1.44772 5.22998 1 4.78227 1 4.22998V2.22998Z" stroke="#98A2B3" stroke-width="1.5" stroke-linecap="round" stroke-linejoin="round"/>
<path d="M1 10.23C1 9.6777 1.44772 9.22998 2 9.22998H8C8.55228 9.22998 9 9.6777 9 10.23V16.23C9 16.7823 8.55228 17.23 8 17.23H2C1.44772 17.23 1 16.7823 1 16.23V10.23Z" stroke="#98A2B3" stroke-width="1.5" stroke-linecap="round" stroke-linejoin="round"/>
<path d="M13 10.23C13 9.6777 13.4477 9.22998 14 9.22998H16C16.5523 9.22998 17 9.6777 17 10.23V16.23C17 16.7823 16.5523 17.23 16 17.23H14C13.4477 17.23 13 16.7823 13 16.23V10.23Z" stroke="#98A2B3" stroke-width="1.5" stroke-linecap="round" stroke-linejoin="round"/>
</svg>
