<svg width="24" height="25" viewBox="0 0 24 25" fill="none" xmlns="http://www.w3.org/2000/svg">
<path d="M14.5 12.23C14.5 13.6108 13.3807 14.73 12 14.73C10.6193 14.73 9.5 13.6108 9.5 12.23C9.5 10.8493 10.6193 9.73004 12 9.73004C13.3807 9.73004 14.5 10.8493 14.5 12.23Z" stroke="#98A2B3" stroke-width="1.5"/>
<path d="M19 11.3716C18.6749 11.3245 18.341 11.2886 18 11.2648M6 13.1954C5.65897 13.1715 5.32511 13.1356 5 13.0886" stroke="#98A2B3" stroke-width="1.5" stroke-linecap="round" stroke-linejoin="round"/>
<path d="M12 19.73C10.6675 20.3523 8.91707 20.73 7 20.73C5.93408 20.73 4.91969 20.6132 4 20.4026C2.49957 20.0589 2 19.1564 2 17.616V6.84395C2 5.85912 3.04003 5.18271 4 5.40258C4.91969 5.61323 5.93408 5.72998 7 5.72998C8.91707 5.72998 10.6675 5.35234 12 4.72998C13.3325 4.10762 15.0829 3.72998 17 3.72998C18.0659 3.72998 19.0803 3.84673 20 4.05738C21.5817 4.41966 22 5.35034 22 6.84395V17.616C22 18.6008 20.96 19.2773 20 19.0574C19.0803 18.8467 18.0659 18.73 17 18.73C15.0829 18.73 13.3325 19.1076 12 19.73Z" stroke="#98A2B3" stroke-width="1.5"/>
</svg>
