<svg width="24" height="25" viewBox="0 0 24 25" fill="none" xmlns="http://www.w3.org/2000/svg">
<path d="M5.12104 18.0337C7.15267 16.8854 9.4998 16.23 12 16.23C14.5002 16.23 16.8473 16.8854 18.879 18.0337M15 10.23C15 11.8868 13.6569 13.23 12 13.23C10.3431 13.23 9 11.8868 9 10.23C9 8.57313 10.3431 7.22998 12 7.22998C13.6569 7.22998 15 8.57313 15 10.23ZM21 12.23C21 17.2005 16.9706 21.23 12 21.23C7.02944 21.23 3 17.2005 3 12.23C3 7.25942 7.02944 3.22998 12 3.22998C16.9706 3.22998 21 7.25942 21 12.23Z" stroke="#98A2B3" stroke-width="1.5" stroke-linecap="round" stroke-linejoin="round"/>
</svg>
