<svg width="20" height="20" viewBox="0 0 20 20" fill="none" xmlns="http://www.w3.org/2000/svg">
<path d="M8.32463 2.54778C8.75103 0.791365 11.249 0.791366 11.6754 2.54778C11.9508 3.6824 13.2507 4.22084 14.2478 3.61332C15.7913 2.67286 17.5576 4.43917 16.6172 5.98265C16.0096 6.97972 16.5481 8.27965 17.6827 8.5551C19.4391 8.9815 19.4391 11.4794 17.6827 11.9058C16.5481 12.1813 16.0096 13.4812 16.6172 14.4783C17.5576 16.0218 15.7913 17.7881 14.2478 16.8476C13.2507 16.2401 11.9508 16.7785 11.6754 17.9132C11.249 19.6696 8.75103 19.6696 8.32463 17.9132C8.04918 16.7785 6.74926 16.2401 5.75219 16.8476C4.2087 17.7881 2.44239 16.0218 3.38285 14.4783C3.99038 13.4812 3.45193 12.1813 2.31731 11.9058C0.560897 11.4794 0.560897 8.9815 2.31731 8.5551C3.45193 8.27965 3.99037 6.97972 3.38285 5.98265C2.44239 4.43917 4.2087 2.67286 5.75219 3.61332C6.74926 4.22084 8.04918 3.6824 8.32463 2.54778Z" stroke="#8F9295" stroke-width="1.5" stroke-linecap="round" stroke-linejoin="round"/>
<path d="M13 10.2305C13 11.8873 11.6569 13.2305 10 13.2305C8.34315 13.2305 7 11.8873 7 10.2305C7 8.57361 8.34315 7.23047 10 7.23047C11.6569 7.23047 13 8.57361 13 10.2305Z" stroke="#8F9295" stroke-width="1.5" stroke-linecap="round" stroke-linejoin="round"/>
</svg>
