<svg width="24" height="25" viewBox="0 0 24 25" fill="none" xmlns="http://www.w3.org/2000/svg">
<path d="M10 6.23047H5C3.89543 6.23047 3 7.1259 3 8.23047V17.2305C3 18.335 3.89543 19.2305 5 19.2305H19C20.1046 19.2305 21 18.335 21 17.2305V8.23047C21 7.1259 20.1046 6.23047 19 6.23047H14M10 6.23047V5.23047C10 4.1259 10.8954 3.23047 12 3.23047C13.1046 3.23047 14 4.1259 14 5.23047V6.23047M10 6.23047C10 7.33504 10.8954 8.23047 12 8.23047C13.1046 8.23047 14 7.33504 14 6.23047M9 14.2305C10.1046 14.2305 11 13.335 11 12.2305C11 11.1259 10.1046 10.2305 9 10.2305C7.89543 10.2305 7 11.1259 7 12.2305C7 13.335 7.89543 14.2305 9 14.2305ZM9 14.2305C10.3062 14.2305 11.4174 15.0653 11.8292 16.2305M9 14.2305C7.69378 14.2305 6.58249 15.0653 6.17065 16.2305M15 11.2305H18M15 15.2305H17" stroke="#8F9295" stroke-width="1.5" stroke-linecap="round" stroke-linejoin="round"/>
</svg>
