<svg width="24" height="25" viewBox="0 0 24 25" fill="none" xmlns="http://www.w3.org/2000/svg">
<path d="M9 5.22998H7C5.89543 5.22998 5 6.12541 5 7.22998V19.23C5 20.3345 5.89543 21.23 7 21.23H17C18.1046 21.23 19 20.3345 19 19.23V7.22998C19 6.12541 18.1046 5.22998 17 5.22998H15M9 5.22998C9 6.33455 9.89543 7.22998 11 7.22998H13C14.1046 7.22998 15 6.33455 15 5.22998M9 5.22998C9 4.12541 9.89543 3.22998 11 3.22998H13C14.1046 3.22998 15 4.12541 15 5.22998M12 12.23H15M12 16.23H15M9 12.23H9.01M9 16.23H9.01" stroke="#98A2B3" stroke-width="1.5" stroke-linecap="round"/>
</svg>
