<svg width="20" height="21" viewBox="0 0 20 21" fill="none" xmlns="http://www.w3.org/2000/svg">
<path d="M7.33268 9.56348C6.44863 9.56348 5.60078 9.21229 4.97566 8.58717C4.35054 7.96204 3.99935 7.1142 3.99935 6.23014V3.56348C3.99935 3.38667 4.06959 3.2171 4.19461 3.09207C4.31964 2.96705 4.4892 2.89681 4.66602 2.89681H5.33268C5.50949 2.89681 5.67906 2.82657 5.80409 2.70155C5.92911 2.57652 5.99935 2.40695 5.99935 2.23014C5.99935 2.05333 5.92911 1.88376 5.80409 1.75874C5.67906 1.63371 5.50949 1.56348 5.33268 1.56348H4.66602C4.13558 1.56348 3.62687 1.77419 3.2518 2.14926C2.87673 2.52434 2.66602 3.03304 2.66602 3.56348V6.23014C2.66687 6.9833 2.85053 7.725 3.20122 8.39153C3.5519 9.05806 4.05913 9.62952 4.67935 10.0568C5.27523 10.5822 5.75849 11.2228 6.09994 11.9401C6.44139 12.6574 6.63396 13.4364 6.66602 14.2301C6.66602 15.4678 7.15768 16.6548 8.03285 17.53C8.90802 18.4051 10.095 18.8968 11.3327 18.8968C12.5704 18.8968 13.7573 18.4051 14.6325 17.53C15.5077 16.6548 15.9993 15.4678 15.9993 14.2301V13.4701C16.6278 13.3079 17.1755 12.922 17.5398 12.3848C17.904 11.8476 18.0599 11.196 17.9781 10.5521C17.8963 9.90827 17.5825 9.31632 17.0955 8.88726C16.6085 8.4582 15.9817 8.22149 15.3327 8.22149C14.6836 8.22149 14.0569 8.4582 13.5699 8.88726C13.0829 9.31632 12.7691 9.90827 12.6873 10.5521C12.6055 11.196 12.7613 11.8476 13.1256 12.3848C13.4899 12.922 14.0376 13.3079 14.666 13.4701V14.2301C14.666 15.1142 14.3148 15.962 13.6897 16.5872C13.0646 17.2123 12.2167 17.5635 11.3327 17.5635C10.4486 17.5635 9.60078 17.2123 8.97566 16.5872C8.35054 15.962 7.99935 15.1142 7.99935 14.2301C8.0331 13.4354 8.22774 12.6558 8.57151 11.9384C8.91528 11.2211 9.40103 10.581 9.99935 10.0568C10.6171 9.62803 11.1217 9.05593 11.4701 8.38949C11.8184 7.72305 12 6.98212 11.9993 6.23014V3.56348C11.9993 3.03304 11.7886 2.52434 11.4136 2.14926C11.0385 1.77419 10.5298 1.56348 9.99935 1.56348H9.33268C9.15587 1.56348 8.9863 1.63371 8.86128 1.75874C8.73625 1.88376 8.66602 2.05333 8.66602 2.23014C8.66602 2.40695 8.73625 2.57652 8.86128 2.70155C8.9863 2.82657 9.15587 2.89681 9.33268 2.89681H9.99935C10.1762 2.89681 10.3457 2.96705 10.4708 3.09207C10.5958 3.2171 10.666 3.38667 10.666 3.56348V6.23014C10.666 6.66788 10.5798 7.10134 10.4123 7.50575C10.2448 7.91017 9.99923 8.27764 9.6897 8.58717C9.38018 8.89669 9.01271 9.14223 8.60829 9.30974C8.20388 9.47726 7.77042 9.56348 7.33268 9.56348ZM15.3327 12.2301C14.9791 12.2301 14.6399 12.0897 14.3899 11.8396C14.1398 11.5896 13.9993 11.2504 13.9993 10.8968C13.9993 10.5432 14.1398 10.204 14.3899 9.954C14.6399 9.70395 14.9791 9.56348 15.3327 9.56348C15.6863 9.56348 16.0254 9.70395 16.2755 9.954C16.5255 10.204 16.666 10.5432 16.666 10.8968C16.666 11.2504 16.5255 11.5896 16.2755 11.8396C16.0254 12.0897 15.6863 12.2301 15.3327 12.2301Z" fill="#98A2B3"/>
</svg>
