<svg width="24" height="25" viewBox="0 0 24 25" fill="none" xmlns="http://www.w3.org/2000/svg">
<path d="M12 4.58416C12.7329 3.75374 13.8053 3.22998 15 3.22998C17.2091 3.22998 19 5.02084 19 7.22998C19 9.43912 17.2091 11.23 15 11.23C13.8053 11.23 12.7329 10.7062 12 9.8758M15 21.23H3V20.23C3 16.9163 5.68629 14.23 9 14.23C12.3137 14.23 15 16.9163 15 20.23V21.23ZM15 21.23H21V20.23C21 16.9163 18.3137 14.23 15 14.23C13.9071 14.23 12.8825 14.5222 12 15.0327M13 7.22998C13 9.43912 11.2091 11.23 9 11.23C6.79086 11.23 5 9.43912 5 7.22998C5 5.02084 6.79086 3.22998 9 3.22998C11.2091 3.22998 13 5.02084 13 7.22998Z" stroke="#98A2B3" stroke-width="1.5" stroke-linecap="round" stroke-linejoin="round"/>
</svg>
