<svg width="20" height="20" viewBox="0 0 20 20" fill="none" xmlns="http://www.w3.org/2000/svg">
<path fill-rule="evenodd" clip-rule="evenodd" d="M5.20039 0.400391C4.53765 0.400391 4.00039 0.937649 4.00039 1.60039V2.80039H2.80039C1.47491 2.80039 0.400391 3.87491 0.400391 5.20039V17.2004C0.400391 18.5259 1.47491 19.6004 2.80039 19.6004H17.2004C18.5259 19.6004 19.6004 18.5259 19.6004 17.2004V5.20039C19.6004 3.87491 18.5259 2.80039 17.2004 2.80039H16.0004V1.60039C16.0004 0.937649 15.4631 0.400391 14.8004 0.400391C14.1376 0.400391 13.6004 0.937649 13.6004 1.60039V2.80039H6.40039V1.60039C6.40039 0.937649 5.86313 0.400391 5.20039 0.400391ZM5.20039 6.40039C4.53765 6.40039 4.00039 6.93765 4.00039 7.60039C4.00039 8.26313 4.53765 8.80039 5.20039 8.80039H14.8004C15.4631 8.80039 16.0004 8.26313 16.0004 7.60039C16.0004 6.93765 15.4631 6.40039 14.8004 6.40039H5.20039Z" fill="white"/>
</svg>
