<svg width="30" height="30" viewBox="0 0 30 30" fill="none" xmlns="http://www.w3.org/2000/svg">
<path d="M12.5884 0.714355C10.8447 0.74373 9.26968 1.78373 8.55718 3.39186L17.0884 5.96873C17.4634 3.73186 16.1197 1.56311 13.9572 0.90498C13.5697 0.78748 13.1634 0.723105 12.7572 0.714355H12.5884ZM8.23218 4.46936C7.85093 6.71248 9.19468 8.88748 11.3634 9.54373C13.5384 10.2 15.8572 9.12498 16.7697 7.04373L8.23218 4.46936ZM24.8259 7.23748C23.2447 7.24373 21.5634 8.00623 20.2947 9.79998L12.4947 20.8562C10.4009 23.8187 11.3134 26.9187 13.3759 28.3812C15.4447 29.85 18.6634 29.6812 20.7572 26.7187L28.5509 15.6687C30.6447 12.7 29.7322 9.60623 27.6697 8.13748C26.8947 7.58748 25.9634 7.26873 24.9822 7.23748H24.8259ZM24.7134 8.31873C24.7947 8.31873 24.8759 8.31873 24.9509 8.32498C25.7072 8.35623 26.4197 8.62498 27.0197 9.05623C28.6259 10.1937 29.4322 12.4625 27.6259 15.0187L23.5947 20.7375C21.3572 20.1375 18.4822 18.0937 17.1759 16.175L21.2197 10.45C22.2759 8.95623 23.5322 8.34373 24.7134 8.31873ZM4.70406 13.0812C4.10281 13.0875 3.50968 13.2125 2.95843 13.4562C0.889058 14.3625 -0.187817 16.675 0.443433 18.85L8.61343 15.2812C7.79468 13.9 6.30718 13.0625 4.70406 13.0812ZM9.05718 16.3062L0.888434 19.8812C2.04156 21.8437 4.46968 22.6312 6.55093 21.725C8.62593 20.8125 9.70093 18.4875 9.05718 16.3062Z" fill="white"/>
</svg>
