<svg width="121" height="30" viewBox="0 0 121 30" fill="none" xmlns="http://www.w3.org/2000/svg">
<path d="M112.439 7.23468C112.439 7.52211 112.321 7.78341 112.13 7.97242C111.94 8.1623 111.676 8.27902 111.385 8.27902C111.094 8.27902 110.83 8.16143 110.64 7.97329C110.449 7.78428 110.331 7.52298 110.331 7.23468V5.09548C110.331 4.70352 110.266 4.32986 110.144 3.99452C110.023 3.66093 109.843 3.35956 109.615 3.10958C109.401 2.87702 109.138 2.68365 108.835 2.54778C108.544 2.41712 108.213 2.33699 107.85 2.32131L107.627 2.31696C107.23 2.32306 106.878 2.39709 106.576 2.52513C106.262 2.65839 105.999 2.85176 105.788 3.09041C105.572 3.3343 105.403 3.63218 105.282 3.96665C105.156 4.31767 105.083 4.70875 105.064 5.12161L105.06 5.40817C105.077 6.65197 105.126 8.24592 105.133 8.50635C105.135 8.59084 105.129 8.67271 105.115 8.75633C105.086 8.97408 104.848 10.3041 103.339 10.3781C101.674 10.433 99.8864 10.3799 98.2593 10.5227C97.8901 10.5619 97.5446 10.6604 97.2369 10.8076C96.9266 10.9565 96.6533 11.1542 96.4309 11.392C96.2085 11.6298 96.0318 11.9146 95.9148 12.2343C95.8023 12.5409 95.7443 12.8823 95.7513 13.2481L95.7707 13.539C95.7847 13.6549 95.8023 13.7638 95.8225 13.8639C95.8445 13.965 95.8718 14.0634 95.9034 14.1575L95.9104 14.1818C96.0063 14.458 96.1469 14.6931 96.3183 14.8891C96.5073 15.1042 96.7376 15.2724 96.9943 15.396C97.2624 15.5249 97.5631 15.612 97.8804 15.6573C98.2206 15.7061 98.5801 15.7096 98.9406 15.6713C99.1085 15.6539 99.2799 15.6251 99.4513 15.5885C99.6192 15.5519 99.788 15.5058 99.9532 15.4518L99.9787 15.4448C100.402 15.3037 100.941 15.0842 101.564 14.8064C102.258 14.4972 103.047 14.1183 103.888 13.6958C104.826 13.2255 105.846 12.6898 106.888 12.1306C108.08 11.4896 109.263 10.8354 110.364 10.2144C117.081 6.42377 120.415 9.40175 120.461 9.44269L120.481 9.46098C120.685 9.64563 120.8 9.89474 120.82 10.1499C120.841 10.4139 120.76 10.6882 120.57 10.9069C120.382 11.1255 120.12 11.2483 119.852 11.2692C119.585 11.2901 119.308 11.2082 119.088 11.021L119.081 11.0149C119.04 10.98 116.799 8.98105 111.403 12.0261C110.248 12.6776 109.044 13.3448 107.882 13.9684C106.848 14.5242 105.814 15.065 104.836 15.5563C103.963 15.9944 103.135 16.3907 102.395 16.7191C101.716 17.0205 101.111 17.2643 100.613 17.4281C100.371 17.5082 100.128 17.5744 99.8908 17.6258L99.8671 17.6302C99.6306 17.6807 99.395 17.719 99.1638 17.7434C98.6171 17.8026 98.0668 17.7939 97.5393 17.7138L97.5059 17.7068C97.0022 17.6267 96.517 17.4812 96.0731 17.267L96.0476 17.253C95.5509 17.0091 95.1043 16.679 94.7351 16.2601C94.3826 15.8603 94.0996 15.3777 93.9088 14.8107C93.8526 14.6417 93.8042 14.4693 93.7664 14.2951C93.7295 14.1244 93.6996 13.9449 93.6803 13.7603C93.6662 13.5983 93.6574 13.4598 93.6513 13.2978C93.6372 12.6541 93.7418 12.0505 93.9457 11.5044C94.1594 10.9321 94.4829 10.4173 94.8916 9.9801C95.2898 9.5533 95.7698 9.20229 96.306 8.94186C96.8352 8.68491 97.4207 8.51506 98.0386 8.44973L98.2742 8.4297C99.8539 8.36786 101.441 8.35654 103.023 8.30515C103.01 7.7538 102.975 6.42115 102.961 5.4282L102.966 5.03189C102.994 4.38909 103.114 3.77503 103.323 3.21323C103.53 2.65752 103.826 2.1506 104.207 1.71857C104.615 1.25607 105.117 0.881535 105.705 0.624587C106.258 0.383318 106.889 0.244827 107.594 0.234375L107.942 0.23873C108.592 0.265731 109.189 0.412932 109.72 0.655073C110.283 0.911149 110.771 1.27262 111.172 1.71074C111.581 2.15756 111.9 2.68452 112.115 3.26113C112.329 3.83164 112.441 4.45354 112.441 5.09461V7.23381L112.439 7.23468ZM102.03 22.5009C102.03 22.2126 102.148 21.9512 102.338 21.7622L102.364 21.7396C102.553 21.5637 102.807 21.4565 103.084 21.4565C103.373 21.4565 103.637 21.5732 103.827 21.7622C104.02 21.9539 104.138 22.2152 104.138 22.5009V24.6401C104.138 25.032 104.203 25.4048 104.325 25.741C104.446 26.0746 104.626 26.376 104.854 26.626C105.068 26.8585 105.331 27.0519 105.634 27.1878C105.925 27.3184 106.256 27.3985 106.619 27.4142L106.842 27.4177C107.239 27.4116 107.591 27.3376 107.893 27.2095C108.207 27.0763 108.47 26.8829 108.681 26.6434C108.897 26.3995 109.066 26.1016 109.187 25.7671C109.313 25.4161 109.386 25.025 109.405 24.6131L109.409 24.3265C109.392 23.0827 109.343 21.4887 109.336 21.2283C109.334 21.1438 109.34 21.0619 109.354 20.9783C109.383 20.7606 109.621 19.4305 111.13 19.3565C112.788 19.3008 114.592 19.353 116.21 19.2128C116.579 19.1727 116.924 19.0743 117.232 18.9271C117.542 18.779 117.816 18.5804 118.038 18.3427C118.261 18.1049 118.437 17.8209 118.554 17.5004C118.668 17.1912 118.726 16.8463 118.718 16.477L118.697 16.1956C118.684 16.0798 118.667 15.9709 118.646 15.8707C118.624 15.7697 118.597 15.6713 118.566 15.5772L118.559 15.5528C118.463 15.2767 118.322 15.0415 118.151 14.8456C117.962 14.6304 117.731 14.4623 117.475 14.3378C117.207 14.2088 116.906 14.1226 116.589 14.0773C116.248 14.0285 115.889 14.0251 115.528 14.0634C115.361 14.0808 115.189 14.1096 115.018 14.1461C114.85 14.1827 114.681 14.2289 114.516 14.2829L114.49 14.2899C114.067 14.431 113.528 14.6504 112.905 14.9283C112.211 15.2375 111.422 15.6173 110.581 16.0397C109.643 16.5101 108.623 17.0457 107.58 17.6049C106.388 18.246 105.205 18.9001 104.104 19.5211C97.3873 23.3118 94.053 20.3338 94.0073 20.2928L93.9871 20.2746C93.7831 20.0899 93.668 19.8408 93.6477 19.5856C93.6266 19.3217 93.7093 19.0473 93.8983 18.8287C94.0864 18.6101 94.3484 18.4872 94.6165 18.4663C94.8828 18.4454 95.1597 18.5273 95.3804 18.7146L95.3874 18.7207C95.4278 18.7555 97.6694 20.7545 103.065 17.7086C104.22 17.0579 105.425 16.3899 106.586 15.7662C107.62 15.2105 108.654 14.6696 109.633 14.1784C110.505 13.7402 111.333 13.3439 112.073 13.0156C112.752 12.7142 113.357 12.4703 113.855 12.3066C114.097 12.2264 114.34 12.1602 114.577 12.1088L114.601 12.1045C114.837 12.054 115.073 12.0156 115.304 11.9913C115.851 11.932 116.401 11.9407 116.929 12.0209L116.962 12.0278C117.466 12.108 117.951 12.2534 118.395 12.4686L118.421 12.4825C118.917 12.7264 119.364 13.0565 119.733 13.4755C120.085 13.8753 120.369 14.3578 120.559 14.9248C120.616 15.0938 120.664 15.2663 120.701 15.4405C120.738 15.6112 120.768 15.7906 120.787 15.9753C120.801 16.1373 120.81 16.2758 120.816 16.4378C120.83 17.0814 120.725 17.685 120.521 18.2312C120.309 18.8034 119.985 19.3173 119.576 19.7554C119.177 20.1822 118.697 20.5332 118.161 20.7937C117.632 21.0506 117.047 21.2205 116.429 21.2858L116.193 21.3058C114.613 21.3677 113.026 21.379 111.444 21.4304C111.458 21.9817 111.492 23.3144 111.507 24.3073L111.501 24.7036C111.473 25.3456 111.353 25.9605 111.145 26.5223C110.937 27.078 110.641 27.5849 110.26 28.017C109.852 28.4795 109.35 28.854 108.762 29.1109C108.209 29.3522 107.578 29.4907 106.873 29.5012L106.525 29.4968C105.875 29.4698 105.279 29.3226 104.747 29.0805C104.184 28.8244 103.696 28.4629 103.295 28.0248C102.887 27.578 102.568 27.051 102.352 26.4744C102.139 25.903 102.026 25.2811 102.026 24.6409V22.5017L102.03 22.5009Z" fill="#6B5DD3"/>
<path fill-rule="evenodd" clip-rule="evenodd" d="M0.685547 20.6473H4.14201V13.0905H8.36765L12.675 20.6473H16.6255L11.9068 12.4921C14.2389 11.5679 15.6929 9.55591 15.6929 6.75649C15.6929 2.7333 12.7577 0.395508 8.56017 0.395508H0.686426V20.6473H0.685547ZM32.5102 5.67208H40.8217V8.69884H38.5643C39.5031 9.95396 40.0543 11.5322 40.0543 13.3082C40.0543 17.739 36.5969 20.974 32.2904 20.974C27.9558 20.974 24.5265 17.739 24.5265 13.3082C24.5265 8.8774 27.9285 5.66947 32.2904 5.66947C32.3642 5.66947 32.4372 5.67034 32.5102 5.67208ZM32.6271 8.69884H32.3941V8.68839L32.2913 8.68752C29.7675 8.68752 27.9566 10.6447 27.9566 13.3361C27.9566 16.0275 29.7675 17.9577 32.2913 17.9577C34.7878 17.9577 36.6259 16.0275 36.6259 13.3361C36.6259 10.7675 34.9513 8.86694 32.628 8.69971L32.6271 8.69884ZM4.14201 10.1003V3.41356H8.55929C10.7271 3.41356 12.1801 4.7462 12.1801 6.75736C12.1801 8.76939 10.7262 10.1012 8.55929 10.1012H4.14201V10.1003ZM18.9849 4.06507H22.277V0.395508H18.9849V4.06507ZM18.9849 20.6473H22.277V5.99523H18.9849V20.6473ZM49.3275 20.974C53.6349 20.974 57.0922 17.739 57.0922 13.3082C57.0922 8.8774 53.663 5.66947 49.3275 5.66947C44.9656 5.66947 41.5636 8.8774 41.5636 13.3082C41.5636 17.739 44.9928 20.974 49.3275 20.974ZM49.3275 17.9568C46.8037 17.9568 44.9928 16.0266 44.9928 13.3352C44.9928 10.6438 46.8037 8.68665 49.3275 8.68665C51.824 8.68665 53.6621 10.6438 53.6621 13.3352C53.6621 16.0266 51.824 17.9568 49.3275 17.9568ZM68.7239 5.9961V14.6949C68.7239 16.679 67.4616 17.9568 65.5962 17.9568C63.7027 17.9568 62.4404 16.679 62.4404 14.6949V5.9961H59.1483V15.1025C59.1483 18.4733 61.4532 20.974 64.7444 20.974C66.5553 20.974 68.0646 20.2397 68.8874 18.9619V20.6473H72.0151V5.99523H68.7231L68.7239 5.9961ZM82.3045 5.83322C80.4937 5.83322 79.0678 6.4316 78.2995 8.03513V5.9961H75.1991V20.6482H78.4912V12.3571C78.4912 10.0733 79.8625 8.76852 81.8931 8.76852H83.6768V5.83235H82.3045V5.83322Z" fill="#090F47"/>
<path fill-rule="evenodd" clip-rule="evenodd" d="M32.4405 29.3394C36.7479 29.3394 40.2044 26.1054 40.2053 21.6745L40.2044 21.5596H36.7752V21.7007C36.7752 24.3921 34.9371 26.3223 32.4405 26.3223C30.6059 26.3223 29.1485 25.3023 28.4892 23.7118L25.6621 25.5183C26.9825 27.8552 29.5036 29.3403 32.4405 29.3403V29.3394Z" fill="#090F47"/>
</svg>
