<svg width="21" height="21" viewBox="0 0 21 21" fill="none" xmlns="http://www.w3.org/2000/svg">
<g id="vuesax/linear/eye-slash">
<g id="eye-slash">
<path id="Vector" d="M12.5829 8.09473L8.36621 12.3114C7.82454 11.7697 7.49121 11.0281 7.49121 10.2031C7.49121 8.55306 8.82454 7.21973 10.4745 7.21973C11.2995 7.21973 12.0412 7.55306 12.5829 8.09473Z" stroke="#8487A3" stroke-width="1.5" stroke-linecap="round" stroke-linejoin="round"/>
<path id="Vector_2" d="M15.3245 5.01152C13.8661 3.91152 12.1995 3.31152 10.4745 3.31152C7.53281 3.31152 4.79115 5.04486 2.88281 8.04486C2.13281 9.21986 2.13281 11.1949 2.88281 12.3699C3.54115 13.4032 4.30781 14.2949 5.14115 15.0115" stroke="#8487A3" stroke-width="1.5" stroke-linecap="round" stroke-linejoin="round"/>
<path id="Vector_3" d="M7.49121 16.4782C8.44121 16.8782 9.44954 17.0949 10.4745 17.0949C13.4162 17.0949 16.1579 15.3615 18.0662 12.3615C18.8162 11.1865 18.8162 9.21152 18.0662 8.03652C17.7912 7.60319 17.4912 7.19486 17.1829 6.81152" stroke="#8487A3" stroke-width="1.5" stroke-linecap="round" stroke-linejoin="round"/>
<path id="Vector_4" d="M13.3998 10.7864C13.1831 11.9614 12.2248 12.9197 11.0498 13.1364" stroke="#8487A3" stroke-width="1.5" stroke-linecap="round" stroke-linejoin="round"/>
<path id="Vector_5" d="M8.36611 12.3115L2.14111 18.5365" stroke="#8487A3" stroke-width="1.5" stroke-linecap="round" stroke-linejoin="round"/>
<path id="Vector_6" d="M18.808 1.86987L12.583 8.09487" stroke="#8487A3" stroke-width="1.5" stroke-linecap="round" stroke-linejoin="round"/>
</g>
</g>
</svg>
